<svg version="1.1"
baseProfile="full"
width="175" height="100"
xmlns="http://www.w3.org/2000/svg">
<rect width="100%" height="100%" fill="#000000" />
<rect x="50" y="0" width="75" height="93.75" fill="#ffffff" />
<path d="M 87.5,37.5 C 87.5,65.114237 77.614237,100 50,100 22.385763,100 0,83.864237 0,56.25 0,28.635763 22.385763,0 50,0 77.614237,0 87.5,9.8857625 87.5,37.5 Z" stroke="#000000" stroke-width="0.5" />
<path d="m 87.5,37.5 c 0,27.614237 9.885763,62.5 37.5,62.5 27.61424,0 50,-16.135763 50,-43.75 C 175,28.635763 152.61424,0 125,0 97.385763,0 87.5,9.8857625 87.5,37.5 Z" stroke="#000000" stroke-width="0.5" />
<path d="M 87.5,37.5 C 87.5,65.114237 77.614237,100 50,100 22.385763,100 0,83.864237 0,56.25 0,28.635763 22.385763,0 50,0 77.614237,0 87.5,9.8857625 87.5,37.5 Z" fill="#ffffff" />
<path d="m 87.5,37.5 c 0,27.614237 9.885763,62.5 37.5,62.5 27.61424,0 50,-16.135763 50,-43.75 C 175,28.635763 152.61424,0 125,0 97.385763,0 87.5,9.8857625 87.5,37.5 Z" fill="#ffffff" />
</svg>
